<svg height="1006" width="720" xmlns="http://www.w3.org/2000/svg">
<rect height="1006" fill="#555" width="720"></rect>
<text fill="#7f7" font-family="Courier New" font-size="12" xml:space="preserve">
<tspan x="10" y="26">10 megabytes installed</tspan>
<tspan x="10" y="42"></tspan>
<tspan x="10" y="58">node_modules</tspan>
<tspan x="10" y="74">└─┬ twitter-stream-channels@1.0.0 </tspan>
<tspan x="10" y="90">  └─┬ twit@2.2.5 </tspan>
<tspan x="10" y="106">    ├── bluebird@3.5.0 </tspan>
<tspan x="10" y="122">    ├── mime@1.3.4 </tspan>
<tspan x="10" y="138">    └─┬ request@2.81.0 </tspan>
<tspan x="10" y="154">      ├── aws-sign2@0.6.0 </tspan>
<tspan x="10" y="170">      ├── aws4@1.6.0 </tspan>
<tspan x="10" y="186">      ├── caseless@0.12.0 </tspan>
<tspan x="10" y="202">      ├─┬ combined-stream@1.0.5 </tspan>
<tspan x="10" y="218">      │ └── delayed-stream@1.0.0 </tspan>
<tspan x="10" y="234">      ├── extend@3.0.0 </tspan>
<tspan x="10" y="250">      ├── forever-agent@0.6.1 </tspan>
<tspan x="10" y="266">      ├─┬ form-data@2.1.4 </tspan>
<tspan x="10" y="282">      │ └── asynckit@0.4.0 </tspan>
<tspan x="10" y="298">      ├─┬ har-validator@4.2.1 </tspan>
<tspan x="10" y="314">      │ ├─┬ ajv@4.11.7 </tspan>
<tspan x="10" y="330">      │ │ ├── co@4.6.0 </tspan>
<tspan x="10" y="346">      │ │ └─┬ json-stable-stringify@1.0.1 </tspan>
<tspan x="10" y="362">      │ │   └── jsonify@0.0.0 </tspan>
<tspan x="10" y="378">      │ └── har-schema@1.0.5 </tspan>
<tspan x="10" y="394">      ├─┬ hawk@3.1.3 </tspan>
<tspan x="10" y="410">      │ ├── boom@2.10.1 </tspan>
<tspan x="10" y="426">      │ ├── cryptiles@2.0.5 </tspan>
<tspan x="10" y="442">      │ ├── hoek@2.16.3 </tspan>
<tspan x="10" y="458">      │ └── sntp@1.0.9 </tspan>
<tspan x="10" y="474">      ├─┬ http-signature@1.1.1 </tspan>
<tspan x="10" y="490">      │ ├── assert-plus@0.2.0 </tspan>
<tspan x="10" y="506">      │ ├─┬ jsprim@1.4.0 </tspan>
<tspan x="10" y="522">      │ │ ├── assert-plus@1.0.0 </tspan>
<tspan x="10" y="538">      │ │ ├── extsprintf@1.0.2 </tspan>
<tspan x="10" y="554">      │ │ ├── json-schema@0.2.3 </tspan>
<tspan x="10" y="570">      │ │ └── verror@1.3.6 </tspan>
<tspan x="10" y="586">      │ └─┬ sshpk@1.13.0 </tspan>
<tspan x="10" y="602">      │   ├── asn1@0.2.3 </tspan>
<tspan x="10" y="618">      │   ├── assert-plus@1.0.0 </tspan>
<tspan x="10" y="634">      │   ├── bcrypt-pbkdf@1.0.1 </tspan>
<tspan x="10" y="650">      │   ├─┬ dashdash@1.14.1 </tspan>
<tspan x="10" y="666">      │   │ └── assert-plus@1.0.0 </tspan>
<tspan x="10" y="682">      │   ├── ecc-jsbn@0.1.1 </tspan>
<tspan x="10" y="698">      │   ├─┬ getpass@0.1.6 </tspan>
<tspan x="10" y="714">      │   │ └── assert-plus@1.0.0 </tspan>
<tspan x="10" y="730">      │   ├── jodid25519@1.0.2 </tspan>
<tspan x="10" y="746">      │   ├── jsbn@0.1.1 </tspan>
<tspan x="10" y="762">      │   └── tweetnacl@0.14.5 </tspan>
<tspan x="10" y="778">      ├── is-typedarray@1.0.0 </tspan>
<tspan x="10" y="794">      ├── isstream@0.1.2 </tspan>
<tspan x="10" y="810">      ├── json-stringify-safe@5.0.1 </tspan>
<tspan x="10" y="826">      ├─┬ mime-types@2.1.15 </tspan>
<tspan x="10" y="842">      │ └── mime-db@1.27.0 </tspan>
<tspan x="10" y="858">      ├── oauth-sign@0.8.2 </tspan>
<tspan x="10" y="874">      ├── performance-now@0.2.0 </tspan>
<tspan x="10" y="890">      ├── qs@6.4.0 </tspan>
<tspan x="10" y="906">      ├── safe-buffer@5.0.1 </tspan>
<tspan x="10" y="922">      ├── stringstream@0.0.5 </tspan>
<tspan x="10" y="938">      ├─┬ tough-cookie@2.3.2 </tspan>
<tspan x="10" y="954">      │ └── punycode@1.4.1 </tspan>
<tspan x="10" y="970">      ├── tunnel-agent@0.6.0 </tspan>
<tspan x="10" y="986">      └── uuid@3.0.1</tspan>
</text>
</svg>
